<?xml version="1.0" encoding="utf-8"?>
<!-- Generator: Adobe Illustrator 16.0.0, SVG Export Plug-In . SVG Version: 6.00 Build 0)  -->
<!DOCTYPE svg PUBLIC "-//W3C//DTD SVG 1.1//EN" "http://www.w3.org/Graphics/SVG/1.1/DTD/svg11.dtd">
<svg version="1.1" id="Layer_1" xmlns="http://www.w3.org/2000/svg" xmlns:xlink="http://www.w3.org/1999/xlink" x="0px" y="0px"
	 width="360px" height="360px" viewBox="0 0 360 360" enable-background="new 0 0 360 360" xml:space="preserve">
<g>
	<g>
		<g>
			<path fill="#676767" d="M129.099,354.655c-1.67,0-3.301-0.675-4.473-1.853l-86.123-86.122c-2.438-2.439-2.493-6.315-0.125-8.824
				l22.18-23.487c1.188-1.251,2.792-1.955,4.513-1.98l0.161-0.003c1.264,0,3.182,0.638,4.402,1.857l11.568,11.571l42.54-35.452
				c1.136-0.94,2.576-1.46,4.05-1.46h54.803c1.69,0,3.28,0.658,4.476,1.854l13.803,13.803h28.696c5.034,0,9.833,1.759,13.877,5.086
				l1.052,0.865l44.748-44.761c1.072-1.069,2.494-1.721,4.001-1.834c0.959-0.069,1.925-0.104,2.866-0.104
				c11.52,0,20.589,5.078,24.882,13.933c4.195,8.647,2.706,18.815-3.794,25.905l-75.138,81.979
				c-1.189,1.305-2.889,2.051-4.665,2.051h-84.633l-6.459,3.233l9.448,9.45c2.439,2.439,2.495,6.315,0.126,8.824l-22.18,23.486
				c-1.184,1.249-2.783,1.952-4.502,1.98H129.099z M51.801,262.08l77.164,77.164l13.483-14.286l-77.165-77.164L51.801,262.08z
				 M90.189,254.801l46.677,46.678l11.576-5.792c0.874-0.434,1.856-0.664,2.836-0.664h83.336l73.264-79.921
				c2.966-3.237,3.646-7.881,1.732-11.829c-2.027-4.18-6.47-6.595-12.51-6.802l-0.651-0.022l-45.396,45.399l0.144,0.775
				c0.23,1.251,0.352,2.553,0.359,3.871l0.001,0.151c-0.004,0.03-0.01,0.06-0.014,0.089c-0.023,0.167-0.044,0.334-0.048,0.508
				c-0.028,0.941-0.073,2.037-0.26,3.089c-0.027,0.063-0.052,0.148-0.071,0.231c-0.107,0.551-0.261,1.051-0.424,1.579l-0.172,0.566
				c-0.059,0.188-0.117,0.395-0.177,0.603c-0.105,0.371-0.209,0.742-0.352,1.102c-0.438,1.128-1.01,2.176-1.459,2.964
				c-0.043,0.077-0.165,0.312-0.165,0.312c-4.039,6.791-11.085,10.846-18.849,10.846h-53.303v-12.657h51.958
				c3.557,0,7.112-1.702,9.059-4.336l0.105-0.156c0.523-0.733,0.807-1.595,1.05-2.412l0.034-0.123
				c0.137-0.507,0.292-1.081,0.33-1.727c0.022-0.277,0.046-0.646,0.024-1.041c-0.042-0.778-0.205-1.586-0.497-2.466
				c-0.028-0.083-0.037-0.129-0.048-0.176c-0.041-0.18-0.099-0.425-0.224-0.697c-1.51-3.353-4.844-5.524-8.489-5.524h-31.315
				c-1.693,0-3.286-0.659-4.482-1.854l-13.804-13.805h-49.892L90.189,254.801z"/>
			<path fill="#FFFFFF" d="M296.112,185.312c10.923,0,19.499,4.77,23.532,13.088c3.926,8.09,2.532,17.604-3.551,24.236
				l-75.143,81.985c-0.903,0.99-2.198,1.559-3.554,1.559h-84.279h-0.709l-0.634,0.317l-4.282,2.144l-3.72,1.862l2.941,2.941
				l7.978,7.979c1.861,1.861,1.903,4.819,0.097,6.733l-22.176,23.482c-0.908,0.958-2.133,1.495-3.405,1.515h-0.109
				c-1.274,0-2.517-0.515-3.415-1.415l-86.12-86.12c-1.86-1.861-1.903-4.819-0.096-6.733l22.174-23.482
				c0.91-0.958,2.136-1.497,3.451-1.516l0.031-0.001l0.031-0.001l0.077-0.001c0.945,0,2.453,0.53,3.341,1.418l10.6,10.603
				l1.938,1.938l2.104-1.754l41.479-34.568c0.872-0.722,1.972-1.119,3.098-1.119h54.803c1.29,0,2.503,0.502,3.415,1.415
				l13.363,13.363l0.879,0.879h1.242h28.075c4.683,0,9.151,1.641,12.924,4.744l2.103,1.73l1.926-1.926l43.782-43.795
				c0.82-0.817,1.905-1.315,3.045-1.401C294.276,185.346,295.207,185.312,296.112,185.312 M250.057,246.537
				c-0.021,0.155-0.053,0.386-0.061,0.658c-0.024,0.849-0.063,1.823-0.213,2.735c-0.029,0.099-0.057,0.197-0.079,0.295l-0.013,0.052
				l-0.01,0.054c-0.081,0.418-0.224,0.88-0.374,1.369c-0.06,0.193-0.119,0.388-0.166,0.546c-0.066,0.217-0.129,0.435-0.191,0.653
				c-0.102,0.356-0.198,0.693-0.311,0.978c-0.399,1.027-0.938,2.013-1.374,2.781c-0.044,0.077-0.084,0.156-0.136,0.259l-0.002,0.005
				c-3.766,6.332-10.33,10.112-17.56,10.112h-1.345h-50.458v-9.657h50.458c4.01,0,8.033-1.936,10.255-4.931
				c0.054-0.071,0.103-0.144,0.149-0.217c0.654-0.941,0.975-1.913,1.247-2.829l0.012-0.037l0.01-0.038l0.023-0.085
				c0.146-0.539,0.326-1.209,0.377-1.994c0.026-0.333,0.053-0.771,0.027-1.244c-0.05-0.914-0.236-1.849-0.571-2.857l-0.01-0.043
				c-0.05-0.214-0.134-0.573-0.313-0.966c-1.756-3.898-5.627-6.417-9.861-6.417h-31.315c-1.293,0-2.509-0.503-3.422-1.415
				l-13.364-13.365l-0.879-0.879h-1.243h-48.728h-1.086l-0.834,0.695l-38.206,31.842l-2.523,2.104l2.322,2.322l44.75,44.752
				l1.53,1.529l1.935-0.968l10.599-5.304c0.672-0.334,1.424-0.51,2.174-0.51h82.676h1.319l0.892-0.973l72.819-79.436
				c3.383-3.693,4.158-8.99,1.976-13.497c-2.281-4.703-7.186-7.419-13.809-7.646l-1.303-0.045l-0.921,0.922l-44.377,44.381
				l-1.116,1.115l0.287,1.552c0.216,1.163,0.328,2.377,0.335,3.589C250.057,246.503,250.057,246.52,250.057,246.537
				 M128.996,341.396l2.12-2.245l11.423-12.104l2-2.12l-2.061-2.061l-75.042-75.042l-2.184-2.184l-2.119,2.246L51.71,259.991
				l-2,2.119l2.061,2.061l75.042,75.042L128.996,341.396 M296.112,182.312c-0.979,0-1.971,0.035-2.979,0.107
				c-1.869,0.141-3.623,0.947-4.949,2.27l-43.786,43.798c-4.065-3.345-9.184-5.428-14.83-5.428h-28.075l-13.363-13.363
				c-1.472-1.473-3.46-2.294-5.536-2.294h-54.803c-1.833,0-3.601,0.642-5.01,1.808l-41.487,34.575l-10.6-10.603
				c-1.445-1.444-3.708-2.297-5.462-2.297c-0.062,0-0.123,0.001-0.183,0.003c-2.122,0.031-4.126,0.917-5.582,2.45l-22.18,23.488
				c-2.913,3.086-2.842,7.915,0.156,10.914l86.121,86.12c1.464,1.471,3.461,2.294,5.536,2.294c0.039,0,0.078,0,0.109,0
				c2.122-0.031,4.126-0.915,5.582-2.45l22.18-23.487c2.912-3.085,2.841-7.916-0.156-10.914l-7.978-7.979l4.282-2.144h84.279
				c2.191,0,4.292-0.916,5.771-2.537l75.138-81.979c6.921-7.548,8.502-18.373,4.038-27.573
				C317.778,187.674,308.097,182.312,296.112,182.312L296.112,182.312z M174.766,270.034h53.458h1.345
				c8.591,0,16.036-4.682,20.138-11.579c0.071-0.109,0.118-0.227,0.18-0.337c0.579-1.017,1.12-2.049,1.55-3.153
				c0.236-0.596,0.384-1.223,0.572-1.832c0.22-0.744,0.471-1.465,0.619-2.232c0.023-0.102,0.062-0.204,0.086-0.307
				c0.196-1.104,0.25-2.206,0.282-3.311c0.007-0.25,0.07-0.477,0.07-0.735c0-0.023-0.009-0.04-0.009-0.062
				c-0.008-1.385-0.133-2.772-0.385-4.135l44.377-44.381c5.419,0.186,9.435,2.293,11.212,5.957
				c1.643,3.391,1.064,7.374-1.488,10.161l-72.818,79.435h-82.676c-1.221,0-2.419,0.282-3.508,0.822l-10.608,5.309l-44.75-44.752
				l38.206-31.842h48.728l13.365,13.365c1.472,1.471,3.461,2.294,5.543,2.294h31.315c3.181,0,5.896,1.918,7.126,4.649
				c0.108,0.236,0.126,0.487,0.211,0.721c0.219,0.658,0.384,1.348,0.423,2.074c0.016,0.29,0,0.58-0.023,0.87
				c-0.031,0.523-0.172,1.019-0.305,1.512c-0.212,0.712-0.438,1.416-0.863,2.013c-0.021,0.03-0.037,0.062-0.061,0.092
				c-1.754,2.373-4.957,3.728-7.853,3.728h-53.458V270.034L174.766,270.034z M128.934,337.092L53.892,262.05l11.422-12.104
				l75.042,75.042L128.934,337.092L128.934,337.092z"/>
		</g>
		<g>
			<path fill="#676767" d="M176.073,190.244c-50.977,0-92.449-41.473-92.449-92.449c0-50.977,41.473-92.45,92.449-92.45
				s92.449,41.473,92.449,92.45C268.522,148.771,227.05,190.244,176.073,190.244z M176.073,18.003
				c-43.997,0-79.791,35.794-79.791,79.792s35.794,79.791,79.791,79.791s79.791-35.794,79.791-79.791S220.07,18.003,176.073,18.003z
				"/>
			<path fill="#FFFFFF" d="M176.073,6.845c50.149,0,90.949,40.8,90.949,90.95c0,50.149-40.8,90.949-90.949,90.949
				s-90.949-40.8-90.949-90.949C85.124,47.645,125.924,6.845,176.073,6.845 M176.073,179.086c44.824,0,81.291-36.467,81.291-81.291
				s-36.467-81.292-81.291-81.292S94.782,52.971,94.782,97.795S131.249,179.086,176.073,179.086 M176.073,3.845
				c-51.805,0-93.949,42.145-93.949,93.95c0,51.805,42.144,93.949,93.949,93.949c51.806,0,93.949-42.145,93.949-93.949
				C270.022,45.989,227.879,3.845,176.073,3.845L176.073,3.845z M176.073,176.086c-43.17,0-78.291-35.122-78.291-78.291
				c0-43.17,35.121-78.292,78.291-78.292c43.169,0,78.291,35.122,78.291,78.292C254.364,140.964,219.242,176.086,176.073,176.086
				L176.073,176.086z"/>
		</g>
	</g>
	<g>
		<path fill="#EF4323" d="M173.049,99.592h-21.072l35.327,37.393l3.926-4.131l-26.445-27.684h8.471
			c8.47-0.207,15.494-6.817,16.734-15.494h11.982v-5.578h-11.982c-0.62-3.718-2.065-7.23-4.545-9.916h16.527v-5.578h-47.516v5.578
			h18.593c5.578,0,10.33,4.132,11.569,9.916h-30.163v5.578h30.163C183.379,95.254,178.627,99.592,173.049,99.592z"/>
	</g>
</g>
</svg>
